<?xml version="1.0" standalone="no"?><!DOCTYPE svg PUBLIC "-//W3C//DTD SVG 1.1//EN" "http://www.w3.org/Graphics/SVG/1.1/DTD/svg11.dtd"><svg class="icon" width="200px" height="200.00px" viewBox="0 0 1024 1024" version="1.1" xmlns="http://www.w3.org/2000/svg"><path fill="#1296db" d="M972.8 934.274509 998.4 908.54902 127.868001 908.54902C85.502225 908.54902 51.2 874.019706 51.2 831.263017L51.2 111.058823 25.6 136.784314 896.131998 136.784314C938.452011 136.784314 972.8 171.324278 972.8 213.860934L972.8 278.566694C972.8 292.77449 984.26151 304.292183 998.4 304.292183 1012.53849 304.292183 1024 292.77449 1024 278.566694L1024 213.860934C1024 142.916556 966.736828 85.333333 896.131998 85.333333L25.6 85.333333 0 85.333333 0 111.058823 0 831.263017C0 902.415639 57.205646 960 127.868001 960L998.4 960 1024 960 1024 934.274509 1024 457.69849C1024 443.490694 1012.53849 431.973001 998.4 431.973001 984.26151 431.973001 972.8 443.490694 972.8 457.69849L972.8 934.274509ZM512.651558 567.164817C520.64791 572.874498 531.187889 573.490406 539.788919 568.750601L1002.624789 313.693694C1015.021598 306.862133 1019.560139 291.225196 1012.761901 278.767619 1005.963665 266.310041 990.403006 261.749254 978.006197 268.580816L515.170327 523.637722 542.307689 525.223505 194.028065 276.539467C182.502788 268.310009 166.520953 271.027598 158.331639 282.609372 150.142325 294.191146 152.846657 310.251322 164.371935 318.480781L512.651558 567.164817Z" /></svg>