<?xml version="1.0" standalone="no"?><!DOCTYPE svg PUBLIC "-//W3C//DTD SVG 1.1//EN" "http://www.w3.org/Graphics/SVG/1.1/DTD/svg11.dtd"><svg class="icon" width="200px" height="200.00px" viewBox="0 0 1024 1024" version="1.1" xmlns="http://www.w3.org/2000/svg"><path fill="#1296db" d="M65.770667 385.770667c-11.776 0-21.333333-9.557333-21.333333-21.333333l0-256c0-11.776 9.557333-21.333333 21.333333-21.333333s21.333333 9.557333 21.333333 21.333333l0 256C87.104 376.213333 77.546667 385.770667 65.770667 385.770667zM300.437333 385.770667l-234.666667 0c-11.776 0-21.333333-9.557333-21.333333-21.333333s9.557333-21.333333 21.333333-21.333333l234.666667 0c11.776 0 21.333333 9.557333 21.333333 21.333333S312.213333 385.770667 300.437333 385.770667zM513.770667 620.437333c-11.776 0-21.333333-9.557333-21.333333-21.333333l0-384c0-11.776 9.557333-21.333333 21.333333-21.333333s21.333333 9.557333 21.333333 21.333333l0 384C535.104 610.88 525.546667 620.437333 513.770667 620.437333zM634.965333 684.885333c-5.952 0-11.861333-2.474667-16.064-7.296l-185.6-212.266667c-7.744-8.874667-6.848-22.336 2.026667-30.101333 8.896-7.744 22.357333-6.826667 30.101333 2.026667l185.6 212.266667c7.744 8.874667 6.848 22.336-2.026667 30.101333C644.949333 683.114667 639.936 684.885333 634.965333 684.885333zM513.770667 983.104c-258.794667 0-469.333333-210.538667-469.333333-469.333333 0-11.776 9.557333-21.333333 21.333333-21.333333s21.333333 9.557333 21.333333 21.333333c0 235.264 191.402667 426.666667 426.666667 426.666667 235.264 0 426.666667-191.402667 426.666667-426.666667 0-235.264-191.402667-426.666667-426.666667-426.666667-173.568 0-328.448 103.68-394.624 264.128-4.458667 10.88-16.896 16.085333-27.861333 11.584-10.88-4.48-16.085333-16.96-11.584-27.861333C152.469333 158.485333 322.858667 44.437333 513.770667 44.437333c258.794667 0 469.333333 210.538667 469.333333 469.333333S772.565333 983.104 513.770667 983.104z" /></svg>