<?xml version="1.0" standalone="no"?><!DOCTYPE svg PUBLIC "-//W3C//DTD SVG 1.1//EN" "http://www.w3.org/Graphics/SVG/1.1/DTD/svg11.dtd"><svg class="icon" width="200px" height="200.00px" viewBox="0 0 1024 1024" version="1.1" xmlns="http://www.w3.org/2000/svg"><path fill="#1296db" d="M390.095238 70.243903 365.714285 45.788618 365.714285 388.162603 390.095238 363.707317 48.761905 363.707317 73.142857 388.162603 73.142857 45.788618 48.761905 70.243903 390.095238 70.243903ZM24.380952 21.333333 24.380952 45.788618 24.380952 388.162603 24.380952 412.617886 48.761905 412.617886 390.095238 412.617886 414.47619 412.617886 414.47619 388.162603 414.47619 45.788618 414.47619 21.333333 390.095238 21.333333 48.761905 21.333333 24.380952 21.333333ZM390.095238 657.170731 365.714285 632.715447 365.714285 975.089431 390.095238 950.634146 97.666649 950.634146C84.112298 950.634146 73.142857 939.635025 73.142857 926.035586L73.142857 632.715447 48.761905 657.170731 390.095238 657.170731ZM24.380952 608.260162 24.380952 632.715447 24.380952 926.035586C24.380952 966.651334 57.185576 999.544715 97.666649 999.544715L390.095238 999.544715 414.47619 999.544715 414.47619 975.089431 414.47619 632.715447 414.47619 608.260162 390.095238 608.260162 48.761905 608.260162 24.380952 608.260162ZM926.33335 70.243903C939.887701 70.243903 950.857143 81.243023 950.857143 94.842462L950.857143 388.162603 975.238095 363.707317 633.904762 363.707317 658.285715 388.162603 658.285715 45.788618 633.904762 70.243903 926.33335 70.243903ZM609.52381 21.333333 609.52381 45.788618 609.52381 388.162603 609.52381 412.617886 633.904762 412.617886 975.238095 412.617886 999.619049 412.617886 999.619049 388.162603 999.619049 94.842462C999.619049 54.226715 966.814423 21.333333 926.33335 21.333333L633.904762 21.333333 609.52381 21.333333ZM975.238095 657.170731 950.857143 632.715447 950.857143 975.089431 975.238095 950.634146 633.904762 950.634146 658.285715 975.089431 658.285715 632.715447 633.904762 657.170731 975.238095 657.170731ZM609.52381 608.260162 609.52381 632.715447 609.52381 975.089431 609.52381 999.544715 633.904762 999.544715 975.238095 999.544715 999.619049 999.544715 999.619049 975.089431 999.619049 632.715447 999.619049 608.260162 975.238095 608.260162 633.904762 608.260162 609.52381 608.260162ZM487.619049 388.440358C487.619049 401.946639 498.534771 412.895644 512 412.895644 525.465229 412.895644 536.380951 401.946639 536.380951 388.440358L536.380951 119.154471C536.380951 105.648191 525.465229 94.699187 512 94.699187 498.534771 94.699187 487.619049 105.648191 487.619049 119.154471L487.619049 388.440358ZM585.142857 681.371383C585.142857 667.865103 574.227134 656.9161 560.761905 656.9161 547.296676 656.9161 536.380951 667.865103 536.380951 681.371383L536.380951 975.089431C536.380951 988.595712 547.296676 999.544715 560.761905 999.544715 574.227134 999.544715 585.142857 988.595712 585.142857 975.089431L585.142857 681.371383ZM487.619049 779.447155C487.619049 765.940875 476.703324 754.99187 463.238095 754.99187 449.772866 754.99187 438.857143 765.940875 438.857143 779.447155L438.857143 975.089431C438.857143 988.595712 449.772866 999.544715 463.238095 999.544715 476.703324 999.544715 487.619049 988.595712 487.619049 975.089431L487.619049 779.447155ZM999.619049 534.894308C1013.084275 534.894308 1024 523.945306 1024 510.439025 1024 496.932745 1013.084275 485.98374 999.619049 485.98374L24.380952 485.98374C10.915724 485.98374 0 496.932745 0 510.439025 0 523.945306 10.915724 534.894308 24.380952 534.894308L999.619049 534.894308Z" /></svg>